<?xml version="1.0" encoding="utf-8"?>
<!-- Generator: Adobe Illustrator 22.1.0, SVG Export Plug-In . SVG Version: 6.00 Build 0)  -->
<svg version="1.1" id="Layer_1" xmlns="http://www.w3.org/2000/svg" xmlns:xlink="http://www.w3.org/1999/xlink" x="0px" y="0px"
	 viewBox="0 0 324 70" enable-background="new 0 0 324 70" xml:space="preserve">
<g id="connect-to-dropbox" transform="translate(28.000000, 81.000000)">
	
		<linearGradient id="bg_1_" gradientUnits="userSpaceOnUse" x1="-545.9562" y1="334.9243" x2="-545.9562" y2="333.9243" gradientTransform="matrix(320 0 0 -66 174840 22026)">
		<stop  offset="0" style="stop-color:#0087E0"/>
		<stop  offset="1" style="stop-color:#007BE8"/>
	</linearGradient>
	<path id="bg" fill="url(#bg_1_)" stroke="#006BC0" stroke-width="1.65" d="M-19.4-79h306.8c3.6,0,6.6,3,6.6,6.6v52.8
		c0,3.6-3,6.6-6.6,6.6H-19.4c-3.6,0-6.6-3-6.6-6.6v-52.8C-26-76-23-79-19.4-79z"/>
	<text transform="matrix(1 0 0 1 50.2169 -37.85)" fill="#FFFFFF" font-family="'Helvetica-Bold'" font-size="23.1px">Connect to Dropbox</text>
	<g id="dropbox" transform="translate(21.443299, 16.500000)">
		<path id="XMLID_11_" fill="#FFFFFF" d="M-14.9-78.8l-11.1,7l7.7,6.1l11.2-6.8L-14.9-78.8z"/>
		<path id="XMLID_10_" fill="#FFFFFF" d="M-26-59.7l11.1,7.2l7.8-6.3l-11.2-6.8L-26-59.7z"/>
		<path id="XMLID_9_" fill="#FFFFFF" d="M-7.1-58.9l7.8,6.3l11.1-7.1l-7.7-6L-7.1-58.9z"/>
		<path id="XMLID_8_" fill="#FFFFFF" d="M11.8-71.7L0.7-78.8l-7.8,6.3l11.2,6.8L11.8-71.7z"/>
		<path id="XMLID_7_" fill="#FFFFFF" d="M-7.1-57.5l-7.8,6.3l-3.3-2.1v2.4l11.1,6.5L4-50.9v-2.4l-3.3,2.1L-7.1-57.5z"/>
	</g>
</g>
</svg>
